<svg width="1238" height="1237" viewBox="0 0 1238 1237" fill="none" xmlns="http://www.w3.org/2000/svg">
<g clip-path="url(#clip0_2005_2)">
<path d="M949.675 197.932C954.573 185.032 972.823 185.032 977.721 197.932L1041.21 365.133C1042.76 369.225 1046.03 372.434 1050.14 373.919L1220.61 435.39C1233.83 440.155 1233.83 458.845 1220.61 463.611L1050.14 525.082C1046.03 526.567 1042.76 529.776 1041.21 533.868L977.721 701.069C972.823 713.969 954.573 713.969 949.675 701.069L884.717 529.994C884.071 528.293 883.74 526.489 883.74 524.67L883.74 449.5L883.74 374.331C883.74 372.512 884.071 370.708 884.717 369.007L949.675 197.932Z" fill="#FF8F6A"/>
<mask id="path-2-inside-1_2005_2" fill="white">
<path d="M935.74 450C935.74 698.529 734.268 900 485.74 900C237.212 900 35.7399 698.529 35.7399 450C35.7399 201.472 237.212 0.000488281 485.74 0.000488281C734.268 0.000488281 935.74 201.472 935.74 450Z"/>
</mask>
<g clip-path="url(#paint0_diamond_2005_2_clip_path)" data-figma-skip-parse="true" mask="url(#path-2-inside-1_2005_2)"><g transform="matrix(0 0.45 -0.45 0 485.74 450)"><rect x="0" y="0" width="1155.56" height="1155.56" fill="url(#paint0_diamond_2005_2)" opacity="1" shape-rendering="crispEdges"/><rect x="0" y="0" width="1155.56" height="1155.56" transform="scale(1 -1)" fill="url(#paint0_diamond_2005_2)" opacity="1" shape-rendering="crispEdges"/><rect x="0" y="0" width="1155.56" height="1155.56" transform="scale(-1 1)" fill="url(#paint0_diamond_2005_2)" opacity="1" shape-rendering="crispEdges"/><rect x="0" y="0" width="1155.56" height="1155.56" transform="scale(-1)" fill="url(#paint0_diamond_2005_2)" opacity="1" shape-rendering="crispEdges"/></g></g><path d="M935.74 450H865.74C865.74 659.869 695.608 830 485.74 830V900V970C772.928 970 1005.74 737.189 1005.74 450H935.74ZM485.74 900V830C275.872 830 105.74 659.869 105.74 450H35.7399H-34.2601C-34.2601 737.189 198.552 970 485.74 970V900ZM35.7399 450H105.74C105.74 240.132 275.872 70.0005 485.74 70.0005V0.000488281V-69.9995C198.552 -69.9995 -34.2601 162.812 -34.2601 450H35.7399ZM485.74 0.000488281V70.0005C695.608 70.0005 865.74 240.132 865.74 450H935.74H1005.74C1005.74 162.812 772.928 -69.9995 485.74 -69.9995V0.000488281Z" data-figma-gradient-fill="{&#34;type&#34;:&#34;GRADIENT_DIAMOND&#34;,&#34;stops&#34;:[{&#34;color&#34;:{&#34;r&#34;:1.0,&#34;g&#34;:0.56078433990478516,&#34;b&#34;:0.41568627953529358,&#34;a&#34;:1.0},&#34;position&#34;:0.0},{&#34;color&#34;:{&#34;r&#34;:1.0,&#34;g&#34;:0.72156864404678345,&#34;b&#34;:0.48235294222831726,&#34;a&#34;:1.0},&#34;position&#34;:1.0}],&#34;stopsVar&#34;:[{&#34;color&#34;:{&#34;r&#34;:1.0,&#34;g&#34;:0.56078433990478516,&#34;b&#34;:0.41568627953529358,&#34;a&#34;:1.0},&#34;position&#34;:0.0},{&#34;color&#34;:{&#34;r&#34;:1.0,&#34;g&#34;:0.72156864404678345,&#34;b&#34;:0.48235294222831726,&#34;a&#34;:1.0},&#34;position&#34;:1.0}],&#34;transform&#34;:{&#34;m00&#34;:5.5109108736909468e-14,&#34;m01&#34;:-900.0,&#34;m02&#34;:935.73992919921875,&#34;m10&#34;:900.0,&#34;m11&#34;:5.5109108736909468e-14,&#34;m12&#34;:0.000488281250},&#34;opacity&#34;:1.0,&#34;blendMode&#34;:&#34;NORMAL&#34;,&#34;visible&#34;:true}" mask="url(#path-2-inside-1_2005_2)"/>
<g clip-path="url(#paint1_diamond_2005_2_clip_path)" data-figma-skip-parse="true"><g transform="matrix(0.11555 0.330376 -0.330376 0.11555 481.666 445.926)"><rect x="0" y="0" width="1085.71" height="1085.71" fill="url(#paint1_diamond_2005_2)" opacity="1" shape-rendering="crispEdges"/><rect x="0" y="0" width="1085.71" height="1085.71" transform="scale(1 -1)" fill="url(#paint1_diamond_2005_2)" opacity="1" shape-rendering="crispEdges"/><rect x="0" y="0" width="1085.71" height="1085.71" transform="scale(-1 1)" fill="url(#paint1_diamond_2005_2)" opacity="1" shape-rendering="crispEdges"/><rect x="0" y="0" width="1085.71" height="1085.71" transform="scale(-1)" fill="url(#paint1_diamond_2005_2)" opacity="1" shape-rendering="crispEdges"/></g></g><path d="M375.233 350.314L373.897 365.255L375.233 350.314ZM386.085 339.466L371.144 340.798L386.085 339.466ZM190.74 333.807L189.403 348.747V348.747L190.74 333.807ZM338.838 454.277L330.565 466.789L338.838 454.277ZM212.619 603.476L223.466 613.836L212.619 603.476ZM399.144 562.8L403.767 577.069L399.144 562.8ZM456.363 756.68L442.324 751.398L456.363 756.68ZM437.095 754.506L422.232 756.527L437.095 754.506ZM536.074 578.248L543.76 565.367L536.074 578.248ZM521.59 583.314L535.629 588.596L521.59 583.314ZM708.847 659.46L721.73 651.777L708.847 659.46ZM695.134 673.169L702.821 660.288L695.134 673.169ZM619.042 485.89L624.32 499.93L619.042 485.89ZM613.972 500.372L626.855 492.689L613.972 500.372ZM790.259 401.445L792.284 386.582L790.259 401.445ZM792.427 420.713L787.149 406.673L792.427 420.713ZM598.563 363.438L612.832 368.065L598.563 363.438ZM655.71 187.243L669.979 191.871L655.71 187.243ZM490.058 303.101L477.544 311.371L490.058 303.101ZM505.306 304.821L515.663 315.672L505.306 304.821ZM387.934 148.566L400.449 140.296L387.934 148.566ZM369.631 154.968L354.69 156.3L369.631 154.968ZM387.934 148.566L375.42 156.836L477.544 311.371L490.058 303.101L502.573 294.831L400.449 140.296L387.934 148.566ZM505.306 304.821L515.663 315.672L649.651 187.775L639.293 176.924L628.936 166.074L494.949 293.971L505.306 304.821ZM655.71 187.243L641.442 182.615L584.295 358.81L598.563 363.438L612.832 368.065L669.979 191.871L655.71 187.243ZM606.725 376.431L604.7 391.294L788.233 416.307L790.259 401.445L792.284 386.582L608.751 361.569L606.725 376.431ZM792.427 420.713L787.149 406.673L613.764 471.849L619.042 485.89L624.32 499.93L797.705 434.754L792.427 420.713ZM613.972 500.372L601.089 508.055L695.964 667.143L708.847 659.46L721.73 651.777L626.855 492.689L613.972 500.372ZM695.134 673.169L702.821 660.288L543.76 565.367L536.074 578.248L528.387 591.129L687.447 686.05L695.134 673.169ZM521.59 583.314L507.55 578.032L442.324 751.398L456.363 756.68L470.403 761.962L535.629 588.596L521.59 583.314ZM437.095 754.506L451.958 752.485L426.998 568.944L412.135 570.965L397.272 572.987L422.232 756.527L437.095 754.506ZM399.144 562.8L394.52 548.53L218.309 605.626L222.933 619.896L227.556 634.165L403.767 577.069L399.144 562.8ZM212.619 603.476L223.466 613.836L351.402 479.885L340.554 469.525L329.707 459.165L201.771 593.116L212.619 603.476ZM338.838 454.277L347.112 441.765L192.607 339.597L184.333 352.109L176.06 364.62L330.565 466.789L338.838 454.277ZM190.74 333.807L189.403 348.747L373.897 365.255L375.233 350.314L376.57 335.374L192.077 318.867L190.74 333.807ZM386.085 339.466L401.026 338.133L384.572 153.635L369.631 154.968L354.69 156.3L371.144 340.798L386.085 339.466ZM375.233 350.314L373.897 365.255C389.415 366.643 402.41 353.652 401.026 338.133L386.085 339.466L371.144 340.798C370.868 337.695 373.466 335.096 376.57 335.374L375.233 350.314ZM184.333 352.109L192.607 339.597C193.371 340.102 194.206 341.093 194.6 342.416C194.952 343.594 194.842 344.637 194.568 345.419C194.294 346.202 193.73 347.085 192.72 347.787C191.587 348.575 190.316 348.829 189.403 348.747L190.74 333.807L192.077 318.867C166.222 316.554 154.407 350.303 176.06 364.62L184.333 352.109ZM340.554 469.525L351.402 479.885C362.163 468.618 360.108 450.359 347.112 441.765L338.838 454.277L330.565 466.789C327.966 465.07 327.555 461.418 329.707 459.165L340.554 469.525ZM222.933 619.896L218.309 605.626C219.181 605.344 220.476 605.309 221.756 605.825C222.897 606.285 223.643 607.021 224.084 607.723C224.525 608.425 224.864 609.417 224.783 610.644C224.693 612.021 224.099 613.173 223.466 613.836L212.619 603.476L201.771 593.116C183.843 611.887 202.862 642.167 227.556 634.165L222.933 619.896ZM412.135 570.965L426.998 568.944C424.898 553.505 409.342 543.727 394.52 548.53L399.144 562.8L403.767 577.069C400.803 578.03 397.692 576.074 397.272 572.987L412.135 570.965ZM456.363 756.68L442.324 751.398C442.647 750.54 443.427 749.506 444.629 748.827C445.7 748.222 446.741 748.097 447.564 748.19C448.388 748.283 449.375 748.637 450.284 749.465C451.304 750.394 451.835 751.577 451.958 752.485L437.095 754.506L422.232 756.527C425.73 782.249 461.262 786.258 470.403 761.962L456.363 756.68ZM536.074 578.248L543.76 565.367C530.381 557.383 513.037 563.449 507.55 578.032L521.59 583.314L535.629 588.596C534.532 591.512 531.063 592.726 528.387 591.129L536.074 578.248ZM708.847 659.46L695.964 667.143C695.495 666.356 695.173 665.101 695.391 663.738C695.586 662.524 696.137 661.632 696.724 661.046C697.31 660.46 698.202 659.909 699.416 659.714C700.779 659.496 702.034 659.819 702.821 660.288L695.134 673.169L687.447 686.05C709.738 699.352 735.026 674.072 721.73 651.777L708.847 659.46ZM619.042 485.89L613.764 471.849C599.18 477.331 593.109 494.673 601.089 508.055L613.972 500.372L626.855 492.689C628.451 495.365 627.237 498.834 624.32 499.93L619.042 485.89ZM790.259 401.445L788.233 416.307C787.325 416.183 786.143 415.653 785.214 414.632C784.386 413.723 784.032 412.736 783.94 411.912C783.847 411.088 783.972 410.047 784.577 408.977C785.256 407.775 786.291 406.995 787.149 406.673L792.427 420.713L797.705 434.754C822.003 425.62 818.005 390.087 792.284 386.582L790.259 401.445ZM598.563 363.438L584.295 358.81C579.488 373.63 589.262 389.19 604.7 391.294L606.725 376.431L608.751 361.569C611.838 361.989 613.793 365.101 612.832 368.065L598.563 363.438ZM639.293 176.924L649.651 187.775C648.988 188.408 647.835 189.001 646.458 189.091C645.231 189.171 644.239 188.832 643.537 188.391C642.836 187.95 642.1 187.203 641.64 186.063C641.124 184.783 641.159 183.487 641.442 182.615L655.71 187.243L669.979 191.871C677.987 167.179 647.713 148.151 628.936 166.074L639.293 176.924ZM490.058 303.101L477.544 311.371C486.134 324.37 504.393 326.43 515.663 315.672L505.306 304.821L494.949 293.971C497.203 291.819 500.855 292.231 502.573 294.831L490.058 303.101ZM387.934 148.566L400.449 140.296C386.137 118.64 352.385 130.445 354.69 156.3L369.631 154.968L384.572 153.635C384.653 154.548 384.399 155.819 383.611 156.952C382.909 157.961 382.025 158.526 381.242 158.799C380.46 159.073 379.417 159.182 378.239 158.831C376.916 158.436 375.926 157.601 375.42 156.836L387.934 148.566Z" data-figma-gradient-fill="{&#34;type&#34;:&#34;GRADIENT_DIAMOND&#34;,&#34;stops&#34;:[{&#34;color&#34;:{&#34;r&#34;:1.0,&#34;g&#34;:0.72156864404678345,&#34;b&#34;:0.48235294222831726,&#34;a&#34;:1.0},&#34;position&#34;:0.0},{&#34;color&#34;:{&#34;r&#34;:1.0,&#34;g&#34;:0.56078433990478516,&#34;b&#34;:0.41568627953529358,&#34;a&#34;:1.0},&#34;position&#34;:1.0}],&#34;stopsVar&#34;:[{&#34;color&#34;:{&#34;r&#34;:1.0,&#34;g&#34;:0.72156864404678345,&#34;b&#34;:0.48235294222831726,&#34;a&#34;:1.0},&#34;position&#34;:0.0},{&#34;color&#34;:{&#34;r&#34;:1.0,&#34;g&#34;:0.56078433990478516,&#34;b&#34;:0.41568627953529358,&#34;a&#34;:1.0},&#34;position&#34;:1.0}],&#34;transform&#34;:{&#34;m00&#34;:231.09974670410156,&#34;m01&#34;:-660.75177001953125,&#34;m02&#34;:696.491699218750,&#34;m10&#34;:660.75177001953125,&#34;m11&#34;:231.09974670410156,&#34;m12&#34;:0.00010490417480468750},&#34;opacity&#34;:1.0,&#34;blendMode&#34;:&#34;NORMAL&#34;,&#34;visible&#34;:true}"/>
<g clip-path="url(#paint2_diamond_2005_2_clip_path)" data-figma-skip-parse="true"><g transform="matrix(0 0.29275 -0.20875 0 590.49 451.75)"><rect x="0" y="0" width="1420.16" height="1074.25" fill="url(#paint2_diamond_2005_2)" opacity="1" shape-rendering="crispEdges"/><rect x="0" y="0" width="1420.16" height="1074.25" transform="scale(1 -1)" fill="url(#paint2_diamond_2005_2)" opacity="1" shape-rendering="crispEdges"/><rect x="0" y="0" width="1420.16" height="1074.25" transform="scale(-1 1)" fill="url(#paint2_diamond_2005_2)" opacity="1" shape-rendering="crispEdges"/><rect x="0" y="0" width="1420.16" height="1074.25" transform="scale(-1)" fill="url(#paint2_diamond_2005_2)" opacity="1" shape-rendering="crispEdges"/></g></g><path d="M367.24 167.986C367.24 158.831 378.522 154.489 384.66 161.282L492.529 280.679C495.82 284.322 501.269 285.037 505.388 282.367L631.239 200.789C638.749 195.922 648.381 202.614 646.44 211.35L611.037 370.662C609.79 376.273 613.52 381.778 619.193 382.702L765.551 406.518C775.408 408.122 777.083 421.596 767.919 425.565L619.161 489.987C613.632 492.382 611.461 499.086 614.535 504.267L697.111 643.422C702.373 652.289 692.4 662.352 683.486 657.171L544.969 576.655C539.791 573.646 533.147 575.831 530.767 581.326L459.51 745.829C454.598 757.169 437.522 751.265 440.663 739.313L514.587 457.999C516.606 450.315 515.495 442.145 511.498 435.28L368.598 189.833C367.709 188.305 367.24 186.569 367.24 184.802V167.986Z" data-figma-gradient-fill="{&#34;type&#34;:&#34;GRADIENT_DIAMOND&#34;,&#34;stops&#34;:[{&#34;color&#34;:{&#34;r&#34;:1.0,&#34;g&#34;:0.72156864404678345,&#34;b&#34;:0.48235294222831726,&#34;a&#34;:1.0},&#34;position&#34;:0.0},{&#34;color&#34;:{&#34;r&#34;:1.0,&#34;g&#34;:0.56078433990478516,&#34;b&#34;:0.41568627953529358,&#34;a&#34;:1.0},&#34;position&#34;:1.0}],&#34;stopsVar&#34;:[{&#34;color&#34;:{&#34;r&#34;:1.0,&#34;g&#34;:0.72156864404678345,&#34;b&#34;:0.48235294222831726,&#34;a&#34;:1.0},&#34;position&#34;:0.0},{&#34;color&#34;:{&#34;r&#34;:1.0,&#34;g&#34;:0.56078433990478516,&#34;b&#34;:0.41568627953529358,&#34;a&#34;:1.0},&#34;position&#34;:1.0}],&#34;transform&#34;:{&#34;m00&#34;:2.5564541938439059e-14,&#34;m01&#34;:-417.50036621093750,&#34;m02&#34;:799.23992919921875,&#34;m10&#34;:585.49969482421875,&#34;m11&#34;:3.5851553794935195e-14,&#34;m12&#34;:159.00042724609375},&#34;opacity&#34;:1.0,&#34;blendMode&#34;:&#34;NORMAL&#34;,&#34;visible&#34;:true}"/>
<path d="M320.74 1086.5L723.666 764L841.01 657.436C857.932 642.068 883.235 662.532 871.746 682.294L726.477 932.165C724.638 935.328 721.967 937.926 718.754 939.676L238.313 1201.37C216.749 1213.11 197.083 1183.17 216.428 1168.05L320.74 1086.5Z" fill="url(#paint3_linear_2005_2)"/>
</g>
<defs>
<clipPath id="paint0_diamond_2005_2_clip_path"><path d="M935.74 450H865.74C865.74 659.869 695.608 830 485.74 830V900V970C772.928 970 1005.74 737.189 1005.74 450H935.74ZM485.74 900V830C275.872 830 105.74 659.869 105.74 450H35.7399H-34.2601C-34.2601 737.189 198.552 970 485.74 970V900ZM35.7399 450H105.74C105.74 240.132 275.872 70.0005 485.74 70.0005V0.000488281V-69.9995C198.552 -69.9995 -34.2601 162.812 -34.2601 450H35.7399ZM485.74 0.000488281V70.0005C695.608 70.0005 865.74 240.132 865.74 450H935.74H1005.74C1005.74 162.812 772.928 -69.9995 485.74 -69.9995V0.000488281Z" mask="url(#path-2-inside-1_2005_2)"/></clipPath><clipPath id="paint1_diamond_2005_2_clip_path"><path d="M375.233 350.314L373.897 365.255L375.233 350.314ZM386.085 339.466L371.144 340.798L386.085 339.466ZM190.74 333.807L189.403 348.747V348.747L190.74 333.807ZM338.838 454.277L330.565 466.789L338.838 454.277ZM212.619 603.476L223.466 613.836L212.619 603.476ZM399.144 562.8L403.767 577.069L399.144 562.8ZM456.363 756.68L442.324 751.398L456.363 756.68ZM437.095 754.506L422.232 756.527L437.095 754.506ZM536.074 578.248L543.76 565.367L536.074 578.248ZM521.59 583.314L535.629 588.596L521.59 583.314ZM708.847 659.46L721.73 651.777L708.847 659.46ZM695.134 673.169L702.821 660.288L695.134 673.169ZM619.042 485.89L624.32 499.93L619.042 485.89ZM613.972 500.372L626.855 492.689L613.972 500.372ZM790.259 401.445L792.284 386.582L790.259 401.445ZM792.427 420.713L787.149 406.673L792.427 420.713ZM598.563 363.438L612.832 368.065L598.563 363.438ZM655.71 187.243L669.979 191.871L655.71 187.243ZM490.058 303.101L477.544 311.371L490.058 303.101ZM505.306 304.821L515.663 315.672L505.306 304.821ZM387.934 148.566L400.449 140.296L387.934 148.566ZM369.631 154.968L354.69 156.3L369.631 154.968ZM387.934 148.566L375.42 156.836L477.544 311.371L490.058 303.101L502.573 294.831L400.449 140.296L387.934 148.566ZM505.306 304.821L515.663 315.672L649.651 187.775L639.293 176.924L628.936 166.074L494.949 293.971L505.306 304.821ZM655.71 187.243L641.442 182.615L584.295 358.81L598.563 363.438L612.832 368.065L669.979 191.871L655.71 187.243ZM606.725 376.431L604.7 391.294L788.233 416.307L790.259 401.445L792.284 386.582L608.751 361.569L606.725 376.431ZM792.427 420.713L787.149 406.673L613.764 471.849L619.042 485.89L624.32 499.93L797.705 434.754L792.427 420.713ZM613.972 500.372L601.089 508.055L695.964 667.143L708.847 659.46L721.73 651.777L626.855 492.689L613.972 500.372ZM695.134 673.169L702.821 660.288L543.76 565.367L536.074 578.248L528.387 591.129L687.447 686.05L695.134 673.169ZM521.59 583.314L507.55 578.032L442.324 751.398L456.363 756.68L470.403 761.962L535.629 588.596L521.59 583.314ZM437.095 754.506L451.958 752.485L426.998 568.944L412.135 570.965L397.272 572.987L422.232 756.527L437.095 754.506ZM399.144 562.8L394.52 548.53L218.309 605.626L222.933 619.896L227.556 634.165L403.767 577.069L399.144 562.8ZM212.619 603.476L223.466 613.836L351.402 479.885L340.554 469.525L329.707 459.165L201.771 593.116L212.619 603.476ZM338.838 454.277L347.112 441.765L192.607 339.597L184.333 352.109L176.06 364.62L330.565 466.789L338.838 454.277ZM190.74 333.807L189.403 348.747L373.897 365.255L375.233 350.314L376.57 335.374L192.077 318.867L190.74 333.807ZM386.085 339.466L401.026 338.133L384.572 153.635L369.631 154.968L354.69 156.3L371.144 340.798L386.085 339.466ZM375.233 350.314L373.897 365.255C389.415 366.643 402.41 353.652 401.026 338.133L386.085 339.466L371.144 340.798C370.868 337.695 373.466 335.096 376.57 335.374L375.233 350.314ZM184.333 352.109L192.607 339.597C193.371 340.102 194.206 341.093 194.6 342.416C194.952 343.594 194.842 344.637 194.568 345.419C194.294 346.202 193.73 347.085 192.72 347.787C191.587 348.575 190.316 348.829 189.403 348.747L190.74 333.807L192.077 318.867C166.222 316.554 154.407 350.303 176.06 364.62L184.333 352.109ZM340.554 469.525L351.402 479.885C362.163 468.618 360.108 450.359 347.112 441.765L338.838 454.277L330.565 466.789C327.966 465.07 327.555 461.418 329.707 459.165L340.554 469.525ZM222.933 619.896L218.309 605.626C219.181 605.344 220.476 605.309 221.756 605.825C222.897 606.285 223.643 607.021 224.084 607.723C224.525 608.425 224.864 609.417 224.783 610.644C224.693 612.021 224.099 613.173 223.466 613.836L212.619 603.476L201.771 593.116C183.843 611.887 202.862 642.167 227.556 634.165L222.933 619.896ZM412.135 570.965L426.998 568.944C424.898 553.505 409.342 543.727 394.52 548.53L399.144 562.8L403.767 577.069C400.803 578.03 397.692 576.074 397.272 572.987L412.135 570.965ZM456.363 756.68L442.324 751.398C442.647 750.54 443.427 749.506 444.629 748.827C445.7 748.222 446.741 748.097 447.564 748.19C448.388 748.283 449.375 748.637 450.284 749.465C451.304 750.394 451.835 751.577 451.958 752.485L437.095 754.506L422.232 756.527C425.73 782.249 461.262 786.258 470.403 761.962L456.363 756.68ZM536.074 578.248L543.76 565.367C530.381 557.383 513.037 563.449 507.55 578.032L521.59 583.314L535.629 588.596C534.532 591.512 531.063 592.726 528.387 591.129L536.074 578.248ZM708.847 659.46L695.964 667.143C695.495 666.356 695.173 665.101 695.391 663.738C695.586 662.524 696.137 661.632 696.724 661.046C697.31 660.46 698.202 659.909 699.416 659.714C700.779 659.496 702.034 659.819 702.821 660.288L695.134 673.169L687.447 686.05C709.738 699.352 735.026 674.072 721.73 651.777L708.847 659.46ZM619.042 485.89L613.764 471.849C599.18 477.331 593.109 494.673 601.089 508.055L613.972 500.372L626.855 492.689C628.451 495.365 627.237 498.834 624.32 499.93L619.042 485.89ZM790.259 401.445L788.233 416.307C787.325 416.183 786.143 415.653 785.214 414.632C784.386 413.723 784.032 412.736 783.94 411.912C783.847 411.088 783.972 410.047 784.577 408.977C785.256 407.775 786.291 406.995 787.149 406.673L792.427 420.713L797.705 434.754C822.003 425.62 818.005 390.087 792.284 386.582L790.259 401.445ZM598.563 363.438L584.295 358.81C579.488 373.63 589.262 389.19 604.7 391.294L606.725 376.431L608.751 361.569C611.838 361.989 613.793 365.101 612.832 368.065L598.563 363.438ZM639.293 176.924L649.651 187.775C648.988 188.408 647.835 189.001 646.458 189.091C645.231 189.171 644.239 188.832 643.537 188.391C642.836 187.95 642.1 187.203 641.64 186.063C641.124 184.783 641.159 183.487 641.442 182.615L655.71 187.243L669.979 191.871C677.987 167.179 647.713 148.151 628.936 166.074L639.293 176.924ZM490.058 303.101L477.544 311.371C486.134 324.37 504.393 326.43 515.663 315.672L505.306 304.821L494.949 293.971C497.203 291.819 500.855 292.231 502.573 294.831L490.058 303.101ZM387.934 148.566L400.449 140.296C386.137 118.64 352.385 130.445 354.69 156.3L369.631 154.968L384.572 153.635C384.653 154.548 384.399 155.819 383.611 156.952C382.909 157.961 382.025 158.526 381.242 158.799C380.46 159.073 379.417 159.182 378.239 158.831C376.916 158.436 375.926 157.601 375.42 156.836L387.934 148.566Z"/></clipPath><clipPath id="paint2_diamond_2005_2_clip_path"><path d="M367.24 167.986C367.24 158.831 378.522 154.489 384.66 161.282L492.529 280.679C495.82 284.322 501.269 285.037 505.388 282.367L631.239 200.789C638.749 195.922 648.381 202.614 646.44 211.35L611.037 370.662C609.79 376.273 613.52 381.778 619.193 382.702L765.551 406.518C775.408 408.122 777.083 421.596 767.919 425.565L619.161 489.987C613.632 492.382 611.461 499.086 614.535 504.267L697.111 643.422C702.373 652.289 692.4 662.352 683.486 657.171L544.969 576.655C539.791 573.646 533.147 575.831 530.767 581.326L459.51 745.829C454.598 757.169 437.522 751.265 440.663 739.313L514.587 457.999C516.606 450.315 515.495 442.145 511.498 435.28L368.598 189.833C367.709 188.305 367.24 186.569 367.24 184.802V167.986Z"/></clipPath><linearGradient id="paint0_diamond_2005_2" x1="0" y1="0" x2="500" y2="500" gradientUnits="userSpaceOnUse">
<stop stop-color="#FF8F6A"/>
<stop offset="1" stop-color="#FFB87B"/>
</linearGradient>
<linearGradient id="paint1_diamond_2005_2" x1="0" y1="0" x2="500" y2="500" gradientUnits="userSpaceOnUse">
<stop stop-color="#FFB87B"/>
<stop offset="1" stop-color="#FF8F6A"/>
</linearGradient>
<linearGradient id="paint2_diamond_2005_2" x1="0" y1="0" x2="500" y2="500" gradientUnits="userSpaceOnUse">
<stop stop-color="#FFB87B"/>
<stop offset="1" stop-color="#FF8F6A"/>
</linearGradient>
<linearGradient id="paint3_linear_2005_2" x1="-9.06918" y1="1254.65" x2="818.201" y2="796.427" gradientUnits="userSpaceOnUse">
<stop stop-color="#FF8F6A"/>
<stop offset="1" stop-color="#FFB87B"/>
</linearGradient>
<clipPath id="clip0_2005_2">
<rect width="1238" height="1237" fill="white"/>
</clipPath>
</defs>
</svg>
